<svg width="256" height="800" viewBox="0 0 256 800" fill="none" xmlns="http://www.w3.org/2000/svg">
<path d="M252.504 658.812C246.875 645.224 233.614 636.364 218.909 636.364H164.364V36.3636C164.364 16.2812 148.082 0 128 0C107.917 0 91.6362 16.2812 91.6362 36.3636V636.364H37.0908C22.3829 636.364 9.12228 645.224 3.49561 658.812C-2.13106 672.4 0.979246 688.041 11.3792 698.441L102.288 789.35C109.387 796.451 118.693 800 128 800C137.307 800 146.613 796.451 153.714 789.348L244.623 698.439C255.02 688.039 258.133 672.4 252.504 658.812Z" fill="#07447D"/>
</svg>
