<svg width="698" height="700" viewBox="0 0 698 700" fill="none" xmlns="http://www.w3.org/2000/svg">
<rect width="697.859" height="700" fill="white"/>
<path d="M342.618 209.149L116.167 339.891C108.888 344.094 102.933 339.592 102.933 329.886V166.599C102.933 156.894 108.888 145.515 116.167 141.313L342.618 10.5705C349.896 6.36755 355.852 10.8695 355.852 20.5757V183.864C355.853 193.569 349.898 204.947 342.618 209.149Z" fill="url(#paint0_linear_2_291)"/>
<path d="M309.309 85.3412L282.194 155.982C275.558 173.268 258.302 181.469 253.816 169.466L243.906 142.948C238.64 128.855 217.985 139.773 211.486 160.084L189.479 228.862C184.39 244.77 168.71 254.657 162.609 245.806C151.68 229.951 124.983 242.516 110.723 270.229L102.936 285.361V329.886C102.936 339.59 108.891 344.092 116.169 339.891L342.621 209.149C349.899 204.946 355.855 193.567 355.855 183.863V113.472L327.653 74.5847C323.511 68.8776 313.337 74.8421 309.309 85.3412Z" fill="url(#paint1_linear_2_291)"/>
<path d="M355.853 157.648L102.933 303.671V299.981L355.853 153.959V157.648Z" fill="#6C91EA"/>
<path d="M355.853 111.06L102.933 257.085V253.395L355.853 107.371V111.06Z" fill="#6C91EA"/>
<path d="M355.853 64.4738L102.933 210.497V206.807L355.853 60.7841V64.4738Z" fill="#6C91EA"/>
<path d="M99.0885 217.52L86.8099 224.61V210.433L99.0885 203.344V217.52Z" fill="#6C91EA"/>
<path d="M99.0885 264.547L86.8099 271.636V257.46L99.0885 250.37V264.547Z" fill="#6C91EA"/>
<path d="M99.0885 311.576L86.8099 318.663V304.486L99.0885 297.397V311.576Z" fill="#6C91EA"/>
<path d="M364.771 221.067L138.319 351.809C131.041 356.012 125.086 351.51 125.086 341.804V178.517C125.086 168.812 131.041 157.434 138.319 153.231L364.771 22.489C372.049 18.286 378.005 22.788 378.005 32.4927V195.781C378.003 205.486 372.049 216.864 364.771 221.067Z" fill="url(#paint2_linear_2_291)"/>
<path d="M545.027 353.514L576.754 376.917C556.361 386.132 526.939 385.101 508.627 374.529C500.924 370.082 495.861 364.335 494.172 358.12L545.027 353.514Z" fill="#E9BFFF"/>
<path d="M545.027 353.514L551.336 324.019C562.72 324.83 573.316 327.816 581.427 332.5C601.394 344.028 601.394 363 581.427 374.529C579.956 375.379 578.395 376.176 576.756 376.917L545.027 353.514Z" fill="#55D5C6"/>
<path d="M545.027 353.514L494.174 358.12C491.625 348.745 497.005 339.209 508.629 332.5C519.833 326.031 535.608 322.898 551.335 324.019L545.027 353.514Z" fill="#73EBFF"/>
<path d="M508.628 374.529C500.924 370.081 495.863 364.335 494.174 358.12V424.613C495.863 430.828 500.926 436.573 508.628 441.022C526.939 451.594 556.361 452.625 576.754 443.41V376.917C556.363 386.132 526.939 385.101 508.628 374.529Z" fill="url(#paint3_linear_2_291)"/>
<path d="M493.568 353.089V353.971L493.579 354.037C493.57 353.721 493.561 353.404 493.568 353.089Z" fill="url(#paint4_linear_2_291)"/>
<path d="M581.425 374.529C579.954 375.379 578.393 376.176 576.754 376.917V443.41C578.393 442.669 579.953 441.871 581.425 441.022C591.468 435.224 596.455 427.543 596.395 419.872V353.919C596.395 353.83 596.395 353.739 596.395 353.648C596.336 361.23 591.35 368.8 581.425 374.529Z" fill="url(#paint5_linear_2_291)"/>
<path d="M581.425 374.529C579.954 375.379 578.393 376.176 576.754 376.917V443.41C578.393 442.669 579.953 441.871 581.425 441.022C591.468 435.224 596.455 427.543 596.395 419.872V353.919C596.395 353.83 596.395 353.739 596.395 353.648C596.336 361.23 591.35 368.8 581.425 374.529Z" fill="url(#paint6_linear_2_291)"/>
<path d="M493.579 354.037C493.617 355.395 493.805 356.759 494.174 358.122L493.579 354.037Z" fill="url(#paint7_linear_2_291)"/>
<path d="M493.579 354.037L493.568 353.971V419.312C493.496 421.072 493.693 422.846 494.174 424.615V358.122C493.803 356.759 493.616 355.395 493.579 354.037Z" fill="url(#paint8_linear_2_291)"/>
<path d="M493.579 354.037L493.568 353.971V419.312C493.496 421.072 493.693 422.846 494.174 424.615V358.122C493.803 356.759 493.616 355.395 493.579 354.037Z" fill="url(#paint9_linear_2_291)"/>
<path d="M460.216 384.699L275.274 491.475C261.791 499.26 238.019 498.274 222.45 489.285L137.285 440.665C121.716 431.676 120.008 417.951 133.493 410.166L318.434 303.39C331.918 295.604 355.69 296.591 371.259 305.58L456.423 354.2C471.993 363.191 473.699 376.915 460.216 384.699Z" fill="#A29AFB"/>
<path d="M469.058 407.058V373.912V373.909V373.906C468.229 377.967 465.31 381.758 460.216 384.698L275.274 491.473C268.794 495.215 259.925 496.879 250.744 496.654V534.573C259.925 534.797 268.794 533.134 275.274 529.392L460.216 422.617C467.268 418.548 470.124 412.851 469.058 407.058Z" fill="#6B5BDF"/>
<path d="M222.45 489.285L137.285 440.665C129.858 436.377 125.624 431.011 124.651 425.726V458.874C123.283 465.563 127.596 472.991 137.285 478.585L222.45 527.205C230.536 531.874 240.824 534.332 250.744 534.576V496.657C240.824 496.413 230.537 493.955 222.45 489.285Z" fill="url(#paint10_linear_2_291)"/>
<path d="M222.45 489.285L137.285 440.665C129.858 436.377 125.624 431.011 124.651 425.726V458.874C123.283 465.563 127.596 472.991 137.285 478.585L222.45 527.205C230.536 531.874 240.824 534.332 250.744 534.576V496.657C240.824 496.413 230.537 493.955 222.45 489.285Z" fill="#4505B3"/>
<path d="M310.128 471.353L420.878 407.412L566.736 500.672L460.606 561.946L310.128 471.353Z" fill="#A29AFB"/>
<path d="M310.128 471.353V509.272L460.606 561.946L310.128 471.353Z" fill="url(#paint11_linear_2_291)"/>
<path d="M356.233 465.64L400.14 443.688L602.454 544.844L558.547 566.796L356.233 465.64Z" fill="url(#paint12_linear_2_291)"/>
<path d="M400.17 512.741C401.884 511.752 401.884 510.146 400.17 509.156C398.456 508.166 395.675 508.166 393.96 509.156C392.246 510.145 392.246 511.75 393.96 512.741C395.674 513.732 398.454 513.73 400.17 512.741ZM385.894 504.499C387.608 503.51 387.608 501.904 385.894 500.913C384.179 499.924 381.4 499.924 379.685 500.913C377.971 501.903 377.971 503.508 379.685 504.499C381.4 505.49 384.181 505.49 385.894 504.499ZM371.621 496.258C373.335 495.269 373.335 493.663 371.621 492.673C369.905 491.683 367.126 491.683 365.411 492.673C363.697 493.662 363.697 495.267 365.411 496.258C367.126 497.249 369.905 497.249 371.621 496.258ZM357.346 488.017C359.061 487.028 359.061 485.423 357.346 484.432C355.632 483.442 352.851 483.442 351.136 484.432C349.422 485.421 349.422 487.027 351.136 488.017C352.851 489.007 355.632 489.007 357.346 488.017ZM457.266 545.706C458.98 544.716 458.98 543.111 457.266 542.12C455.55 541.129 452.771 541.129 451.056 542.12C449.342 543.109 449.342 544.715 451.056 545.706C452.771 546.695 455.55 546.695 457.266 545.706ZM442.992 537.465C444.707 536.475 444.707 534.87 442.992 533.879C441.278 532.89 438.497 532.89 436.782 533.879C435.067 534.869 435.067 536.474 436.782 537.465C438.496 538.454 441.277 538.454 442.992 537.465ZM428.717 529.223C430.431 528.233 430.431 526.628 428.717 525.637C427.002 524.648 424.222 524.648 422.507 525.637C420.793 526.626 420.793 528.232 422.507 529.223C424.222 530.213 427.003 530.213 428.717 529.223ZM414.443 520.982C416.157 519.993 416.157 518.387 414.443 517.396C412.728 516.407 409.949 516.407 408.233 517.396C406.518 518.386 406.518 519.991 408.233 520.982C409.949 521.973 412.728 521.973 414.443 520.982Z" fill="#4505B3"/>
<path d="M455.337 497.913L355.419 440.151C354.69 439.732 353.794 439.732 353.065 440.151C352.338 440.571 351.888 441.348 351.888 442.188V487.869C351.888 488.044 351.911 488.214 351.948 488.377C353.352 488.876 355.13 488.876 356.535 488.377C356.57 488.212 356.594 488.043 356.594 487.869V446.265L380.437 460.047V504.067C380.437 504.358 380.497 504.633 380.593 504.889C381.952 505.344 383.628 505.344 384.987 504.889C385.084 504.633 385.143 504.358 385.143 504.067V462.767L423.26 484.801V528.479C423.26 528.913 423.386 529.316 423.593 529.666C424.86 530.047 426.366 530.047 427.632 529.666C427.839 529.316 427.965 528.913 427.965 528.479V487.521L451.808 501.303V545.628C451.808 545.776 451.826 545.92 451.852 546.06C453.263 546.566 455.058 546.566 456.47 546.06C456.496 545.92 456.513 545.776 456.513 545.628V499.946C456.513 499.11 456.065 498.334 455.337 497.913Z" fill="url(#paint13_linear_2_291)"/>
<path d="M488.561 461.508C490.275 460.519 490.275 458.914 488.561 457.923C486.845 456.933 484.066 456.933 482.351 457.923C480.637 458.912 480.637 460.518 482.351 461.508C484.065 462.498 486.845 462.498 488.561 461.508ZM474.286 453.268C475.999 452.278 475.999 450.673 474.286 449.682C472.57 448.693 469.791 448.693 468.076 449.682C466.362 450.671 466.362 452.277 468.076 453.268C469.791 454.257 472.572 454.257 474.286 453.268ZM460.012 445.025C461.726 444.036 461.726 442.431 460.012 441.44C458.298 440.45 455.517 440.45 453.802 441.44C452.088 442.429 452.088 444.035 453.802 445.025C455.517 446.016 458.297 446.016 460.012 445.025ZM445.738 436.785C447.454 435.795 447.454 434.19 445.738 433.199C444.023 432.21 441.244 432.21 439.528 433.199C437.814 434.188 437.814 435.794 439.528 436.785C441.242 437.774 444.023 437.774 445.738 436.785ZM545.657 494.473C547.372 493.483 547.372 491.878 545.657 490.887C543.943 489.898 541.162 489.898 539.447 490.887C537.731 491.877 537.733 493.482 539.447 494.473C541.161 495.464 543.941 495.464 545.657 494.473ZM531.383 486.232C533.099 485.243 533.099 483.637 531.383 482.647C529.668 481.657 526.889 481.657 525.173 482.647C523.459 483.636 523.459 485.241 525.173 486.232C526.887 487.221 529.668 487.221 531.383 486.232ZM517.108 477.991C518.822 477.002 518.822 475.397 517.108 474.406C515.393 473.416 512.613 473.416 510.898 474.406C509.183 475.395 509.183 477 510.898 477.991C512.613 478.981 515.394 478.981 517.108 477.991ZM502.834 469.749C504.548 468.76 504.548 467.154 502.834 466.164C501.12 465.174 498.34 465.174 496.624 466.164C494.909 467.153 494.909 468.758 496.624 469.749C498.34 470.74 501.119 470.74 502.834 469.749Z" fill="#4505B3"/>
<path d="M543.752 446.686L443.834 388.925C443.105 388.505 442.209 388.505 441.48 388.925C440.753 389.344 440.303 390.121 440.303 390.961V436.642C440.303 436.817 440.326 436.987 440.363 437.151C441.767 437.649 443.545 437.649 444.95 437.151C444.987 436.985 445.009 436.817 445.009 436.642V395.038L468.852 408.821V452.841C468.852 453.131 468.912 453.406 469.008 453.663C470.367 454.119 472.043 454.119 473.402 453.663C473.499 453.406 473.558 453.132 473.558 452.842V411.542L511.675 433.576V477.253C511.675 477.688 511.801 478.091 512.006 478.441C513.274 478.822 514.78 478.822 516.046 478.441C516.253 478.091 516.379 477.688 516.379 477.253V436.295L540.222 450.078V494.403C540.222 494.55 540.24 494.694 540.265 494.834C541.677 495.34 543.471 495.34 544.883 494.834C544.908 494.694 544.926 494.55 544.926 494.403V448.721C544.926 447.883 544.48 447.107 543.752 446.686Z" fill="url(#paint14_linear_2_291)"/>
<path d="M418.763 209.373L375.791 234.183C372.658 235.993 367.133 235.763 363.517 233.675L322.307 209.882C318.689 207.793 318.293 204.605 321.426 202.796L364.399 177.986C367.532 176.177 373.055 176.406 376.673 178.495L417.883 202.287C421.501 204.376 421.897 207.564 418.763 209.373Z" fill="#E9BFFF"/>
<path d="M420.818 363.808V206.867C420.626 207.81 419.948 208.691 418.764 209.375L375.791 234.185C374.285 235.054 372.225 235.441 370.091 235.388V393.439C372.225 393.491 374.285 393.104 375.791 392.235L418.764 367.425C420.403 366.477 421.067 365.153 420.818 363.808Z" fill="url(#paint15_linear_2_291)"/>
<path d="M363.517 233.675L322.307 209.882C320.581 208.885 319.598 207.639 319.372 206.411V363.351C319.053 364.906 320.056 366.632 322.307 367.932L363.517 391.725C365.396 392.809 367.787 393.381 370.091 393.437V235.387C367.787 235.331 365.396 234.759 363.517 233.675Z" fill="url(#paint16_linear_2_291)"/>
<path d="M363.517 233.675L322.307 209.882C320.581 208.885 319.598 207.639 319.372 206.411V363.351C319.053 364.906 320.056 366.632 322.307 367.932L363.517 391.725C365.396 392.809 367.787 393.381 370.091 393.437V235.387C367.787 235.331 365.396 234.759 363.517 233.675Z" fill="url(#paint17_linear_2_291)"/>
<path d="M350.994 302.896L308.022 327.706C304.889 329.515 299.366 329.286 295.748 327.197L254.538 303.405C250.92 301.316 250.524 298.128 253.657 296.319L296.63 271.509C299.763 269.699 305.286 269.929 308.904 272.017L350.114 295.81C353.73 297.899 354.128 301.087 350.994 302.896Z" fill="#55D5C6"/>
<path d="M353.049 402.823V300.391V300.389C352.856 301.332 352.179 302.213 350.995 302.897L308.022 327.707C306.516 328.576 304.456 328.963 302.322 328.911V432.454C304.456 432.506 306.516 432.119 308.022 431.25L350.995 406.44C352.633 405.492 353.298 404.17 353.049 402.823Z" fill="url(#paint18_linear_2_291)"/>
<path d="M295.748 327.197L254.538 303.405C252.812 302.408 251.829 301.161 251.603 299.934V402.367C251.284 403.921 252.287 405.647 254.538 406.947L295.748 430.74C297.627 431.824 300.018 432.396 302.322 432.452V328.91C300.016 328.853 297.627 328.282 295.748 327.197Z" fill="url(#paint19_linear_2_291)"/>
<path d="M295.748 327.197L254.538 303.405C252.812 302.408 251.829 301.161 251.603 299.934V402.367C251.284 403.921 252.287 405.647 254.538 406.947L295.748 430.74C297.627 431.824 300.018 432.396 302.322 432.452V328.91C300.016 328.853 297.627 328.282 295.748 327.197Z" fill="url(#paint20_linear_2_291)"/>
<path d="M284.72 380.516L241.748 405.326C238.614 407.135 233.092 406.906 229.474 404.817L188.264 381.025C184.646 378.936 184.25 375.747 187.383 373.938L230.356 349.128C233.489 347.319 239.013 347.548 242.63 349.637L283.84 373.43C287.456 375.518 287.854 378.707 284.72 380.516Z" fill="#73EBFF"/>
<path d="M286.775 441.092V378.009C286.581 378.952 285.904 379.833 284.72 380.517L241.748 405.327C240.242 406.196 238.181 406.583 236.048 406.531V470.724C238.181 470.776 240.242 470.389 241.748 469.52L284.72 444.71C286.358 443.762 287.023 442.438 286.775 441.092Z" fill="url(#paint21_linear_2_291)"/>
<path d="M229.473 404.817L188.264 381.025C186.538 380.028 185.555 378.781 185.328 377.554V440.636C185.01 442.191 186.013 443.917 188.264 445.216L229.473 469.008C231.353 470.093 233.743 470.664 236.048 470.721V406.528C233.742 406.473 231.353 405.902 229.473 404.817Z" fill="url(#paint22_linear_2_291)"/>
<path d="M229.473 404.817L188.264 381.025C186.538 380.028 185.555 378.781 185.328 377.554V440.636C185.01 442.191 186.013 443.917 188.264 445.216L229.473 469.008C231.353 470.093 233.743 470.664 236.048 470.721V406.528C233.742 406.473 231.353 405.902 229.473 404.817Z" fill="url(#paint23_linear_2_291)"/>
<path id="float" d="M442.565 75.269L442.007 33.4568L410.682 73.1623L420.702 73.8244L384.598 169.486L361.111 115.4L304.845 280.539L273.377 237.099L267.73 252.849C267.621 253.149 256.836 283.231 246.206 313.165C223.841 376.143 224.771 376.436 224.058 379.489C224.058 379.489 237.32 373.422 237.278 373.572C238.756 368.17 258.757 311.821 274.102 268.914L305.951 312.877L359.873 154.616L382.596 206.945L432.542 74.607L442.565 75.269Z" fill="#A29AFB"/>
<path d="M267.73 252.85L273.355 237.162L262.173 230.839L256.525 246.588C256.418 246.889 245.632 276.97 235.002 306.904C212.636 369.883 213.565 370.176 212.854 373.229L224.058 379.491C224.769 376.438 223.839 376.145 246.206 313.166C256.836 283.232 267.621 253.152 267.73 252.85Z" fill="url(#paint24_linear_2_291)"/>
<path d="M420.702 73.8259L410.682 73.1638L442.007 33.4583L430.804 27.1963L399.478 66.9018L407.968 71.618L377.34 152.773L361.111 115.402L384.598 169.488L420.702 73.8259Z" fill="url(#paint25_linear_2_291)"/>
<path d="M361.111 115.402L349.907 109.14L295.774 268.02L273.377 237.101L304.845 280.541L361.111 115.402Z" fill="url(#paint26_linear_2_291)"/>
<path d="M271.9 275.079L294.748 306.618L294.769 306.556L305.951 312.879L274.102 268.915C272.77 272.644 271.277 276.824 271.9 275.079Z" fill="url(#paint27_linear_2_291)"/>
<path d="M356.145 165.566L371.393 200.685L382.597 206.947L359.875 154.618L356.145 165.566Z" fill="url(#paint28_linear_2_291)"/>
<path d="M371.393 200.685L338.655 219.321L350.027 225.888L382.597 206.947L371.393 200.685Z" fill="url(#paint29_linear_2_291)"/>
<path d="M294.77 306.556L278.067 316.99L288.794 323.183L305.952 312.879L294.77 306.556Z" fill="url(#paint30_linear_2_291)"/>
<path d="M212.855 373.229L194.14 384.503L205.424 390.914L224.059 379.491L212.855 373.229Z" fill="url(#paint31_linear_2_291)"/>
<path d="M185.86 547.741C199.727 523.723 199.728 497.763 185.861 489.757C171.995 481.751 149.513 494.731 135.646 518.749C121.779 542.766 121.778 568.726 135.645 576.732C149.511 584.738 171.993 571.758 185.86 547.741Z" fill="#6B5BDF"/>
<path d="M160.767 494.553C180.042 483.425 195.719 492.112 196.25 513.914C196.259 513.524 196.275 513.131 196.275 512.744C196.275 490.099 180.377 480.921 160.767 492.243C141.156 503.565 125.258 531.1 125.258 553.746C125.258 554.132 125.275 554.506 125.283 554.885C125.815 532.47 141.491 505.682 160.767 494.553Z" fill="#A29AFB"/>
<path d="M125.258 553.745C125.258 531.102 141.157 503.565 160.767 492.243C170.525 486.608 179.362 486.054 185.781 489.706L161.277 475.202C154.84 471.393 145.901 471.886 136.016 477.593C116.406 488.915 100.508 516.45 100.508 539.095C100.508 550.471 104.522 558.445 111.001 562.132L135.508 576.638C129.171 572.89 125.258 564.977 125.258 553.745Z" fill="url(#paint32_linear_2_291)"/>
<path d="M135.658 547.741C135.658 531.73 146.899 512.258 160.765 504.252C161.283 503.953 161.792 503.704 162.302 503.446C162.302 501.943 162.302 500.713 162.302 499.182C161.79 499.445 161.283 499.689 160.765 499.988C144.86 509.172 131.964 531.506 131.964 549.873C131.964 566.939 143.098 574.565 157.436 568.195C157.474 566.743 157.506 565.291 157.528 563.837C145.196 569.122 135.658 562.483 135.658 547.741Z" fill="#55D5C6"/>
<path d="M189.237 511.755C187.981 512.522 186.7 513.265 185.491 514.079C185.726 515.537 185.874 517.078 185.874 518.749C185.874 534.762 174.633 554.232 160.765 562.238C159.666 562.873 158.59 563.383 157.528 563.839C157.506 565.291 157.474 566.743 157.436 568.196C158.529 567.71 159.639 567.153 160.765 566.502C176.673 557.318 189.567 534.983 189.567 516.617C189.569 514.898 189.456 513.277 189.237 511.755Z" fill="#0DB1C2"/>
<path d="M185.49 514.079C186.7 513.265 187.981 512.522 189.237 511.755C187.204 497.532 176.022 492.098 162.304 499.182C162.304 500.713 162.304 501.941 162.304 503.446C174.024 497.499 183.558 502.087 185.49 514.079Z" fill="#007177"/>
<path d="M148.32 543.981V546.259L141.704 550.08V547.802L144.019 546.466V540.763C143.922 540.969 143.766 541.214 143.555 541.492C143.342 541.772 143.11 542.053 142.863 542.334C142.612 542.617 142.354 542.879 142.088 543.12C141.822 543.361 141.585 543.542 141.378 543.66V541.308C141.575 541.195 141.813 540.985 142.095 540.678C142.376 540.372 142.655 540.039 142.927 539.68C143.199 539.323 143.436 538.988 143.637 538.677C143.837 538.368 143.964 538.139 144.019 537.996L146.252 536.706V545.174L148.32 543.981Z" fill="#55D5C6"/>
<path d="M157.919 535.202C157.919 536.029 157.814 536.853 157.602 537.672C157.389 538.49 157.096 539.261 156.721 539.985C156.347 540.711 155.9 541.363 155.384 541.943C154.869 542.525 154.311 542.987 153.713 543.333C153.106 543.684 152.547 543.865 152.037 543.877C151.525 543.89 151.083 543.751 150.706 543.459C150.333 543.166 150.038 542.735 149.827 542.16C149.614 541.586 149.509 540.885 149.509 540.058C149.509 539.229 149.614 538.405 149.827 537.588C150.038 536.77 150.333 535.998 150.706 535.273C151.081 534.549 151.525 533.894 152.037 533.311C152.547 532.726 153.106 532.259 153.713 531.908C154.311 531.563 154.869 531.384 155.384 531.377C155.9 531.367 156.345 531.508 156.721 531.799C157.096 532.093 157.389 532.524 157.602 533.098C157.814 533.671 157.919 534.373 157.919 535.202ZM155.72 536.473C155.72 535.97 155.671 535.537 155.573 535.172C155.475 534.808 155.335 534.529 155.158 534.33C154.979 534.132 154.765 534.024 154.523 534C154.276 533.979 154.009 534.052 153.715 534.223C153.411 534.399 153.137 534.638 152.892 534.942C152.648 535.247 152.435 535.601 152.258 536.005C152.078 536.412 151.94 536.85 151.842 537.326C151.743 537.804 151.694 538.294 151.694 538.795C151.694 539.296 151.743 539.725 151.842 540.085C151.94 540.442 152.078 540.719 152.258 540.916C152.435 541.114 152.648 541.223 152.892 541.247C153.137 541.268 153.411 541.19 153.715 541.016C154.011 540.847 154.277 540.61 154.523 540.306C154.767 540.001 154.979 539.647 155.158 539.243C155.335 538.838 155.475 538.401 155.573 537.931C155.671 537.459 155.72 536.972 155.72 536.473Z" fill="#55D5C6"/>
<path d="M167.929 529.423C167.929 530.251 167.822 531.075 167.611 531.893C167.398 532.711 167.105 533.482 166.731 534.207C166.355 534.933 165.91 535.584 165.394 536.165C164.878 536.746 164.32 537.209 163.722 537.554C163.115 537.905 162.555 538.087 162.045 538.099C161.533 538.112 161.091 537.972 160.715 537.681C160.341 537.388 160.047 536.956 159.835 536.383C159.623 535.809 159.517 535.107 159.517 534.281C159.517 533.452 159.623 532.628 159.835 531.811C160.047 530.993 160.341 530.221 160.715 529.496C161.09 528.772 161.533 528.117 162.045 527.534C162.555 526.949 163.115 526.482 163.722 526.131C164.321 525.786 164.878 525.607 165.394 525.6C165.91 525.59 166.353 525.731 166.731 526.022C167.105 526.316 167.398 526.747 167.611 527.323C167.822 527.894 167.929 528.595 167.929 529.423ZM165.727 530.694C165.727 530.191 165.678 529.758 165.58 529.394C165.483 529.029 165.343 528.751 165.165 528.552C164.986 528.354 164.772 528.245 164.529 528.221C164.284 528.201 164.016 528.273 163.72 528.445C163.417 528.62 163.143 528.86 162.897 529.163C162.653 529.468 162.442 529.822 162.263 530.227C162.082 530.633 161.945 531.072 161.847 531.548C161.75 532.026 161.7 532.515 161.7 533.016C161.7 533.518 161.75 533.946 161.847 534.306C161.945 534.663 162.082 534.94 162.263 535.138C162.442 535.336 162.653 535.444 162.897 535.468C163.143 535.489 163.417 535.412 163.72 535.238C164.016 535.068 164.284 534.831 164.529 534.528C164.773 534.223 164.986 533.869 165.165 533.464C165.343 533.06 165.483 532.622 165.58 532.152C165.678 531.682 165.727 531.195 165.727 530.694Z" fill="#55D5C6"/>
<path d="M171.987 524.746C171.607 524.966 171.254 525.094 170.928 525.131C170.602 525.17 170.318 525.13 170.08 525.009C169.842 524.889 169.652 524.7 169.51 524.435C169.368 524.173 169.298 523.84 169.298 523.438C169.298 523.048 169.368 522.639 169.51 522.205C169.652 521.773 169.841 521.361 170.08 520.971C170.32 520.585 170.602 520.219 170.928 519.879C171.254 519.542 171.607 519.262 171.987 519.042C172.355 518.829 172.706 518.701 173.038 518.661C173.368 518.619 173.654 518.657 173.892 518.768C174.131 518.881 174.322 519.073 174.463 519.342C174.604 519.613 174.674 519.94 174.674 520.33C174.674 520.732 174.604 521.146 174.463 521.573C174.322 522 174.131 522.41 173.892 522.806C173.652 523.202 173.368 523.569 173.038 523.911C172.705 524.256 172.355 524.533 171.987 524.746ZM170.208 532.735L174.804 523.89L179.042 515.007L180.036 515.449L175.588 524.097L171.205 533.177L170.208 532.735ZM171.987 523.486C172.148 523.392 172.298 523.261 172.435 523.094C172.572 522.928 172.693 522.742 172.801 522.534C172.91 522.327 172.995 522.11 173.054 521.881C173.114 521.651 173.145 521.43 173.145 521.215C173.145 520.778 173.03 520.47 172.801 520.293C172.574 520.117 172.301 520.12 171.987 520.302C171.824 520.396 171.674 520.527 171.538 520.693C171.401 520.86 171.279 521.046 171.171 521.253C171.062 521.461 170.977 521.675 170.918 521.897C170.86 522.12 170.829 522.339 170.829 522.551C170.829 522.99 170.942 523.301 171.171 523.483C171.398 523.667 171.672 523.669 171.987 523.486ZM178.278 529.15C177.898 529.37 177.544 529.498 177.218 529.535C176.893 529.574 176.61 529.535 176.372 529.422C176.132 529.309 175.942 529.121 175.801 528.858C175.659 528.593 175.589 528.262 175.589 527.86C175.589 527.458 175.659 527.046 175.801 526.618C175.942 526.192 176.132 525.78 176.372 525.384C176.611 524.99 176.893 524.622 177.218 524.283C177.544 523.944 177.898 523.666 178.278 523.446C178.657 523.227 179.011 523.097 179.336 523.059C179.661 523.02 179.949 523.062 180.194 523.175C180.438 523.291 180.627 523.483 180.764 523.749C180.899 524.017 180.968 524.35 180.968 524.752C180.968 525.155 180.899 525.566 180.764 525.99C180.627 526.414 180.438 526.82 180.194 527.211C179.949 527.604 179.663 527.97 179.336 528.308C179.011 528.651 178.657 528.931 178.278 529.15ZM178.278 527.89C178.441 527.796 178.59 527.665 178.727 527.5C178.862 527.333 178.984 527.147 179.093 526.939C179.202 526.732 179.286 526.516 179.346 526.295C179.405 526.072 179.435 525.854 179.435 525.64C179.435 525.415 179.404 525.224 179.337 525.067C179.273 524.911 179.188 524.789 179.086 524.704C178.981 524.619 178.861 524.578 178.72 524.578C178.577 524.578 178.43 524.622 178.278 524.71C178.116 524.804 177.965 524.935 177.828 525.1C177.692 525.267 177.571 525.453 177.462 525.659C177.354 525.868 177.269 526.085 177.21 526.314C177.15 526.543 177.119 526.765 177.119 526.978C177.119 527.416 177.233 527.724 177.462 527.902C177.69 528.074 177.962 528.073 178.278 527.89Z" fill="#55D5C6"/>
<path d="M405.471 593.525L321.865 641.795C318.481 643.749 312.513 643.501 308.605 641.244L226.904 594.074C222.996 591.817 222.567 588.372 225.952 586.418L309.557 538.149C312.942 536.194 318.909 536.443 322.818 538.698L404.518 585.868C408.427 588.126 408.855 591.572 405.471 593.525Z" fill="url(#paint33_linear_2_291)"/>
<path d="M405.471 589.378L321.865 637.647C318.481 639.602 312.513 639.353 308.605 637.096L226.904 589.927C222.996 587.67 222.567 584.224 225.952 582.27L309.557 534.001C312.942 532.046 318.909 532.295 322.818 534.552L404.518 581.721C408.427 583.977 408.855 587.423 405.471 589.378Z" fill="url(#paint34_linear_2_291)"/>
<path d="M307.404 615.98L321.45 607.87C324.046 606.372 323.721 603.755 320.723 602.024L317.389 600.098C314.392 598.368 309.858 598.181 307.263 599.679L293.217 607.789C290.621 609.287 290.947 611.905 293.944 613.636L297.279 615.561C300.275 617.29 304.808 617.479 307.404 615.98Z" fill="#A29AFB"/>
<path d="M353.024 573.258L321.423 591.502C318.827 593 319.153 595.619 322.151 597.349L325.485 599.274C328.481 601.004 333.016 601.192 335.611 599.694L367.211 581.449C369.806 579.951 369.481 577.334 366.483 575.602L363.149 573.677C360.153 571.948 355.62 571.759 353.024 573.258Z" fill="#A29AFB"/>
<path d="M311.644 623.855L380.852 583.898L377.623 582.034L308.416 621.991L311.644 623.855Z" fill="#A29AFB"/>
<path d="M316.237 626.506L364.944 598.384L361.715 596.52L313.007 624.642L316.237 626.506Z" fill="#A29AFB"/>
<path d="M349.016 568.721L285.357 605.475C282.945 606.868 278.692 606.692 275.907 605.084L244.204 586.78C241.419 585.172 241.114 582.717 243.525 581.324L307.184 544.57C309.596 543.178 313.849 543.353 316.634 544.962L348.337 563.266C351.122 564.872 351.429 567.329 349.016 568.721Z" fill="#A29AFB"/>
<path d="M344.305 303.412C342.582 304.629 340.179 304.214 338.962 302.493L321.689 278.034C320.472 276.311 320.888 273.907 322.609 272.691C324.332 271.474 326.734 271.889 327.951 273.611L345.224 298.07C346.441 299.793 346.028 302.197 344.305 303.412Z" fill="url(#paint35_linear_2_291)"/>
<path d="M332.387 276.257L326.813 268.366C324.933 265.703 321.213 265.062 318.55 266.944C315.887 268.825 315.246 272.544 317.128 275.207L322.701 283.098C322.701 283.098 329.267 285.174 332.387 276.257Z" fill="url(#paint36_linear_2_291)"/>
<path d="M312.928 307.591C313.145 307.931 313.453 308.201 313.801 308.402L333.974 319.943C336.172 321.203 339.269 319.97 340.858 317.201C342.447 314.432 341.95 311.135 339.753 309.874L316.545 296.591C315.987 296.271 315.285 296.348 314.818 296.789C313.125 298.384 309.661 302.484 312.928 307.591Z" fill="#2D2D4F"/>
<path d="M299.569 314.434C299.787 314.773 300.095 315.044 300.444 315.244L320.617 326.785C322.814 328.045 325.912 326.812 327.501 324.043C329.09 321.274 328.593 317.977 326.395 316.716L303.186 303.433C302.628 303.113 301.926 303.191 301.459 303.631C299.766 305.226 296.302 309.326 299.569 314.434Z" fill="#46466C"/>
<path d="M331.125 349.157C330.959 350.829 334.964 351.867 338.324 353.807C342.996 356.505 348.028 357.972 350.424 356.588C351.031 356.237 351.32 355.789 351.339 355.271V352.528C351.424 350.975 349.115 348.609 345.61 345.193C341.746 341.429 339.284 339.078 333.51 342.413C331.86 343.365 331.198 344.077 331.191 344.686L331.125 349.157Z" fill="#010400"/>
<path d="M345.609 345.195C350.276 349.743 352.823 352.43 350.425 353.813C348.028 355.197 343.239 353.113 338.325 349.401C334.02 346.148 327.735 345.748 333.509 342.414C339.283 339.08 341.746 341.431 345.609 345.195Z" fill="#1C1C38"/>
<path d="M341.876 341.895C342.062 341.538 342.143 341.136 342.143 340.733V313.746C342.143 311.213 339.531 309.14 336.338 309.14C333.145 309.14 330.533 311.213 330.533 313.746V344.232C330.533 344.875 330.95 345.446 331.564 345.632C333.793 346.308 339.071 347.27 341.876 341.895Z" fill="#2D2D4F"/>
<path d="M301.576 316.789C301.719 316.88 301.881 316.938 302.067 316.951C304.634 317.15 313.861 315.14 323.091 304.736C323.851 303.879 324.342 302.717 324.342 301.744V272.224C324.342 270 323.546 268.438 322.27 267.719L315.329 263.67C314.066 262.918 312.314 263.007 310.384 264.122L300.917 269.588C297.095 271.794 293.968 277.211 293.968 281.625V311.32C293.968 312.012 294.215 312.519 294.638 312.741L301.576 316.789Z" fill="url(#paint37_linear_2_291)"/>
<path d="M317.292 355.271C317.124 356.944 321.13 357.982 324.491 359.922C329.163 362.619 334.194 364.086 336.591 362.703C337.198 362.352 337.487 361.904 337.506 361.386V358.643C337.591 357.089 335.282 354.724 331.777 351.306C327.913 347.542 325.451 345.192 319.677 348.526C318.027 349.478 317.365 350.191 317.357 350.799L317.292 355.271Z" fill="#010400"/>
<path d="M331.777 351.309C336.444 355.857 338.989 358.544 336.593 359.928C334.196 361.312 329.407 359.227 324.492 355.515C320.188 352.263 313.903 351.863 319.677 348.529C325.449 345.195 327.913 347.545 331.777 351.309Z" fill="#1C1C38"/>
<path d="M328.042 348.011C328.228 347.654 328.31 347.252 328.31 346.849V319.862C328.31 317.329 325.698 315.256 322.505 315.256C319.312 315.256 316.7 317.329 316.7 319.862V350.348C316.7 350.991 317.116 351.562 317.731 351.748C319.959 352.422 325.239 353.386 328.042 348.011Z" fill="#46466C"/>
<path d="M302.625 271.421C302.61 272.154 303.087 272.891 304.057 273.452C305.968 274.555 309.067 274.555 310.978 273.452C311.948 272.892 312.422 272.156 312.409 271.421V264.989C312.424 264.256 311.948 263.519 310.978 262.958C309.066 261.854 305.967 261.854 304.057 262.958C303.087 263.518 302.612 264.254 302.625 264.989V271.421Z" fill="#894258"/>
<path d="M307.517 268.204C314.96 268.204 320.993 262.171 320.993 254.728C320.993 247.285 314.96 241.252 307.517 241.252C300.075 241.252 294.041 247.285 294.041 254.728C294.041 262.171 300.075 268.204 307.517 268.204Z" fill="url(#paint38_linear_2_291)"/>
<path d="M300.284 265.29C301.155 264.413 302.512 262.801 303.061 260.8C303.091 260.694 303.103 260.582 303.103 260.472V254.021C303.103 252.737 303.412 251.459 304.089 250.369C304.664 249.445 305.515 248.625 306.717 248.695C306.717 248.695 317.531 253.408 321.578 244.605C321.886 243.934 321.526 243.123 320.806 242.952C320.032 242.768 319.01 242.103 317.881 240.265C317.612 239.827 317.101 239.59 316.601 239.712C315.547 239.968 313.61 240.029 311.75 237.924C311.525 237.669 311.198 237.537 310.86 237.544C308.803 237.584 301.685 237.928 297.811 240.728C297.783 240.749 297.757 240.768 297.731 240.791C296.9 241.475 283.518 252.879 298.681 265.357C299.156 265.746 299.851 265.724 300.284 265.29Z" fill="#331202"/>
<path d="M303.015 262.299C303.015 263.906 301.888 264.558 300.495 263.754C299.103 262.951 297.975 260.996 297.975 259.389C297.975 257.782 299.103 257.131 300.495 257.934C301.888 258.738 303.015 260.691 303.015 262.299Z" fill="#AC5E74"/>
<path d="M341.258 308.368L317.238 322.189L298.814 312.144L323.398 298.077L341.258 308.368Z" fill="url(#paint39_linear_2_291)"/>
<path d="M341.259 308.368L345.037 284.283L318.372 299.659L317.239 322.189L341.259 308.368Z" fill="#BDCEFA"/>
<path d="M320.237 312.48C318.52 313.703 316.115 313.3 314.892 311.582L297.518 287.196C296.295 285.479 296.698 283.073 298.415 281.849C300.132 280.626 302.537 281.029 303.762 282.747L321.136 307.135C322.359 308.852 321.954 311.257 320.237 312.48Z" fill="url(#paint40_linear_2_291)"/>
<path d="M307.482 286.438L302.64 278.077C301.007 275.255 297.36 274.283 294.538 275.917C291.716 277.55 290.744 281.197 292.378 284.019L297.219 292.38C297.219 292.38 303.573 295.039 307.482 286.438Z" fill="url(#paint41_linear_2_291)"/>
<path d="M447.247 487.683L414.509 506.318L446.427 524.444L478.998 505.505L447.247 487.683Z" fill="url(#paint42_linear_2_291)"/>
<path d="M532.872 344.327L500.133 362.963L523.852 376.39L556.422 357.449L532.872 344.327Z" fill="url(#paint43_linear_2_291)"/>
<path d="M530.474 236.143C528.534 236.512 527.249 238.401 527.618 240.341L532.858 267.89C533.227 269.83 535.116 271.116 537.055 270.747C538.995 270.378 540.28 268.488 539.911 266.548L534.671 238.999C534.302 237.059 532.414 235.774 530.474 236.143Z" fill="url(#paint44_linear_2_291)"/>
<path d="M541.013 261.838L542.703 270.726C543.275 273.727 541.287 276.647 538.286 277.219C535.285 277.79 532.365 275.802 531.794 272.801L530.104 263.913C530.104 263.913 532.978 258.139 541.013 261.838Z" fill="#4505B3"/>
<path d="M556.184 357.137C556.34 358.702 552.588 359.677 549.441 361.493C545.066 364.019 540.354 365.394 538.109 364.097C537.541 363.768 537.271 363.348 537.252 362.865V360.296C537.173 358.842 539.335 356.625 542.618 353.425C546.237 349.899 548.543 347.699 553.951 350.821C555.497 351.714 556.117 352.381 556.124 352.95L556.184 357.137Z" fill="#010400"/>
<path d="M542.619 353.426C538.248 357.686 535.863 360.202 538.108 361.498C540.353 362.793 544.837 360.841 549.44 357.365C553.47 354.319 559.358 353.944 553.951 350.821C548.544 347.699 546.237 349.9 542.619 353.426Z" fill="#1C1C38"/>
<path d="M546.115 350.336C545.941 350.002 545.864 349.625 545.864 349.249V311.732C545.864 309.36 548.309 307.419 551.3 307.419C554.29 307.419 556.736 309.36 556.736 311.732V352.526C556.736 353.129 556.346 353.663 555.771 353.837C553.686 354.469 548.741 355.371 546.115 350.336Z" fill="url(#paint45_linear_2_291)"/>
<path d="M544.417 348.46C544.574 350.025 540.821 350.998 537.675 352.817C533.299 355.343 528.587 356.717 526.342 355.42C525.774 355.091 525.505 354.672 525.485 354.188V351.619C525.407 350.164 527.568 347.949 530.852 344.748C534.47 341.222 536.776 339.022 542.184 342.145C543.73 343.037 544.35 343.704 544.358 344.275L544.417 348.46Z" fill="#010400"/>
<path d="M530.852 344.75C526.481 349.009 524.096 351.525 526.341 352.821C528.586 354.117 533.07 352.165 537.673 348.688C541.704 345.642 547.592 345.268 542.184 342.145C536.778 339.023 534.47 341.224 530.852 344.75Z" fill="#1C1C38"/>
<path d="M534.35 341.66C534.176 341.325 534.098 340.949 534.098 340.572V303.055C534.098 300.684 536.544 298.742 539.535 298.742C542.525 298.742 544.971 300.684 544.971 303.055V343.85C544.971 344.452 544.581 344.986 544.005 345.16C541.92 345.793 536.974 346.694 534.35 341.66Z" fill="url(#paint46_linear_2_291)"/>
<path d="M554.945 318.477C554.811 318.562 554.659 318.616 554.485 318.629C552.081 318.815 543.44 316.933 534.796 307.19C534.083 306.388 533.624 305.299 533.624 304.388V276.741C533.624 274.658 534.369 273.196 535.565 272.522L542.065 268.729C543.248 268.026 544.889 268.109 546.697 269.153L555.562 274.271C559.142 276.338 562.071 281.411 562.071 285.544V313.354C562.071 314.001 561.839 314.477 561.445 314.685L554.945 318.477Z" fill="#705FDF"/>
<path d="M552.429 275.988C552.443 276.676 551.998 277.366 551.089 277.89C549.299 278.924 546.396 278.924 544.607 277.89C543.699 277.364 543.253 276.676 543.266 275.988V269.964C543.253 269.277 543.698 268.588 544.607 268.063C546.396 267.029 549.299 267.029 551.089 268.063C551.998 268.588 552.443 269.277 552.429 269.964V275.988Z" fill="#E5A89C"/>
<path d="M547.848 272.975C554.819 272.975 560.469 267.325 560.469 260.355C560.469 253.385 554.819 247.734 547.848 247.734C540.878 247.734 535.228 253.385 535.228 260.355C535.228 267.325 540.878 272.975 547.848 272.975Z" fill="url(#paint47_linear_2_291)"/>
<path fill-rule="evenodd" clip-rule="evenodd" d="M558.379 245.431C569.162 249.134 563.8 264.886 555.955 270.568C552.12 268.472 556.784 264.72 551.551 267.331C550.51 262.258 552.85 263.803 551.431 257.424C545.947 260.285 535.272 256.817 533.615 251.531C535.525 250.683 537.526 245.258 541.994 243.268C547.746 240.707 555.106 241.838 558.379 245.431Z" fill="#E58800"/>
<path d="M552.065 267.445C552.065 268.951 553.121 269.561 554.424 268.808C555.728 268.055 556.784 266.225 556.784 264.72C556.784 263.214 555.728 262.604 554.424 263.357C553.121 264.11 552.065 265.94 552.065 267.445Z" fill="#FCC4B7"/>
<path d="M556.64 246.16C554.665 246.187 553.072 247.823 553.099 249.799L553.478 277.839C553.505 279.813 555.141 281.407 557.116 281.38C559.09 281.353 560.683 279.717 560.657 277.742L560.277 249.702C560.252 247.727 558.614 246.133 556.64 246.16Z" fill="url(#paint48_linear_2_291)"/>
<path d="M562.561 273.295L562.683 282.342C562.725 285.397 560.259 287.929 557.206 287.969C554.154 288.011 551.62 285.546 551.58 282.493L551.458 273.446C551.458 273.446 555.289 268.258 562.561 273.295Z" fill="#4505B3"/>
<path d="M444.755 474.819C444.288 475.024 444.108 475.594 444.066 476.391C444.054 476.62 446.436 475.024 446.348 475.838C446.323 476.073 444.613 487.585 448.284 491.4C448.691 491.822 449.234 491.724 449.62 491.525L450.624 490.956C451.792 490.378 452.567 487.719 453.614 483.753C454.769 479.383 455.468 476.617 450.657 473.779C449.282 472.968 448.489 472.777 448.041 473.023L444.755 474.819Z" fill="#010400"/>
<path d="M453.616 483.753C452.222 489.032 451.31 491.999 449.312 490.819C447.314 489.641 446.861 485.287 447.544 480.171C448.144 475.691 445.845 470.939 450.657 473.778C455.47 476.618 454.77 479.384 453.616 483.753Z" fill="#8737A8"/>
<path d="M484.641 449.992L474.76 453.607L470.749 458.164C470.749 458.164 463.633 461.148 458.045 467.028C458.045 467.028 455.913 470.139 448.886 473.73C448.886 473.73 448.873 478.644 453.268 479.437L481.427 463.228C483.397 462.095 484.702 460.089 484.944 457.829C485.139 456.007 485.14 453.461 484.641 449.992Z" fill="#E28C66"/>
<path d="M463.865 499.756C463.814 500.263 464.222 500.701 464.895 501.129C465.088 501.253 464.869 498.393 465.534 498.869C465.726 499.008 474.91 506.158 480.037 504.838C480.605 504.692 480.787 504.169 480.803 503.736V502.583C480.875 501.281 478.939 499.299 476.002 496.435C472.765 493.281 470.701 491.311 465.863 494.105C464.481 494.904 463.926 495.501 463.919 496.011L463.865 499.756Z" fill="#010400"/>
<path d="M476.001 496.435C479.911 500.245 482.046 502.498 480.037 503.657C478.029 504.816 474.016 503.071 469.898 499.958C466.292 497.233 461.023 496.898 465.862 494.104C470.7 491.313 472.765 493.281 476.001 496.435Z" fill="#8737A8"/>
<path d="M472.07 494.617L471.785 459.428L462.241 462.522L462.146 468.932C462.146 468.932 461.245 476.596 463.615 484.355C463.615 484.355 465.274 487.741 464.947 495.626C464.947 495.626 469.218 498.054 472.07 494.617Z" fill="url(#paint49_linear_2_291)"/>
<path d="M498.096 445.317C496.187 446.183 493.915 445.33 493.049 443.422L477.947 410.051C477.081 408.142 477.934 405.87 479.842 405.004C481.751 404.139 484.023 404.991 484.889 406.9L499.991 440.269C500.859 442.179 500.005 444.45 498.096 445.317Z" fill="url(#paint50_linear_2_291)"/>
<path d="M456.041 451.215V464.209C456.041 464.209 471.268 469.35 485.581 451.215V438.638L456.041 451.215Z" fill="#55D5C6"/>
<path d="M462.943 455.24C463.084 455.33 463.246 455.388 463.431 455.403C465.984 455.6 475.159 453.601 484.337 443.258C485.093 442.405 485.581 441.249 485.581 440.282V410.927C485.581 408.715 484.789 407.162 483.519 406.448L476.617 402.422C475.361 401.673 473.619 401.763 471.698 402.871L462.285 408.306C458.484 410.5 455.375 415.886 455.375 420.275V449.801C455.375 450.488 455.62 450.993 456.04 451.214L462.943 455.24Z" fill="#6B5BDF"/>
<path d="M465.613 410.127C465.598 410.857 466.072 411.589 467.036 412.146C468.936 413.244 472.018 413.244 473.918 412.146C474.882 411.589 475.355 410.857 475.34 410.127V403.731C475.355 403.002 474.882 402.268 473.918 401.712C472.018 400.614 468.936 400.614 467.036 401.712C466.072 402.268 465.598 403.002 465.613 403.731V410.127Z" fill="#DD936F"/>
<path d="M439.641 452.128C437.77 451.182 437.014 448.877 437.96 447.006L454.555 414.117C455.501 412.245 457.805 411.49 459.677 412.436C461.549 413.382 462.304 415.687 461.358 417.558L444.764 450.447C443.817 452.317 441.513 453.074 439.641 452.128Z" fill="url(#paint51_linear_2_291)"/>
<path d="M482.858 389.88L487.669 408.553C488.119 410.293 486.383 411.799 484.724 411.107L473.65 406.501C472.692 406.102 472.149 405.085 472.35 404.067L475.977 385.699C476.361 383.752 478.936 383.292 479.972 384.984L482.607 389.285C482.72 389.469 482.804 389.67 482.858 389.88Z" fill="#943BBB"/>
<path d="M466.009 401.056C466.009 402.654 464.887 403.302 463.504 402.503C462.12 401.705 460.998 399.762 460.998 398.164C460.998 396.566 462.12 395.917 463.504 396.716C464.887 397.515 466.009 399.458 466.009 401.056Z" fill="#F9AB83"/>
<path d="M470.419 406.831C477.82 406.831 483.819 400.832 483.819 393.431C483.819 386.03 477.82 380.031 470.419 380.031C463.018 380.031 457.019 386.03 457.019 393.431C457.019 400.832 463.018 406.831 470.419 406.831Z" fill="url(#paint52_linear_2_291)"/>
<path d="M457.391 395.219C457.391 395.219 468.714 401.431 474.234 385.275C474.234 385.275 477.185 392.098 484.55 390.591C484.55 390.591 484.55 379.968 473.586 377.906C473.586 377.906 454.204 375.972 457.391 395.219Z" fill="#943BBB"/>
<path d="M463.63 395.751L468.442 414.424C468.891 416.164 467.155 417.67 465.494 416.978L454.422 412.372C453.464 411.973 452.921 410.956 453.122 409.938L456.749 391.57C457.133 389.622 459.708 389.163 460.745 390.854L463.38 395.155C463.492 395.341 463.577 395.541 463.63 395.751Z" fill="#943BBB"/>
<defs>
<linearGradient id="paint0_linear_2_291" x1="213.685" y1="50.0582" x2="249.145" y2="332.625" gradientUnits="userSpaceOnUse">
<stop stop-color="#5861D6"/>
<stop offset="0.0699" stop-color="#535ACE" stop-opacity="0.93"/>
<stop offset="0.484" stop-color="#3934A3" stop-opacity="0.5157"/>
<stop offset="0.8077" stop-color="#291C89" stop-opacity="0.1917"/>
<stop offset="0.9993" stop-color="#23137F" stop-opacity="0"/>
</linearGradient>
<linearGradient id="paint1_linear_2_291" x1="186.482" y1="149.287" x2="297.714" y2="343.009" gradientUnits="userSpaceOnUse">
<stop stop-color="#55D5C6"/>
<stop offset="0.1097" stop-color="#4FBFBE" stop-opacity="0.8903"/>
<stop offset="0.7272" stop-color="#304491" stop-opacity="0.2723"/>
<stop offset="0.9993" stop-color="#23137F" stop-opacity="0"/>
</linearGradient>
<linearGradient id="paint2_linear_2_291" x1="516.377" y1="-253.506" x2="118.904" y2="407.848" gradientUnits="userSpaceOnUse">
<stop stop-color="white"/>
<stop offset="0.0994" stop-color="#EEEEEE" stop-opacity="0.9006"/>
<stop offset="0.2962" stop-color="#C2C3C2" stop-opacity="0.7038"/>
<stop offset="0.5718" stop-color="#7B7D7B" stop-opacity="0.4282"/>
<stop offset="0.9123" stop-color="#1B1E1A" stop-opacity="0.0876"/>
<stop offset="1" stop-color="#010400" stop-opacity="0"/>
</linearGradient>
<linearGradient id="paint3_linear_2_291" x1="583.849" y1="414.856" x2="477.83" y2="397.735" gradientUnits="userSpaceOnUse">
<stop offset="0.31" stop-color="#AC36A8"/>
<stop offset="0.4773" stop-color="#9B36A8"/>
<stop offset="0.8064" stop-color="#7037A8"/>
<stop offset="0.9996" stop-color="#5337A8"/>
</linearGradient>
<linearGradient id="paint4_linear_2_291" x1="538.36" y1="278.962" x2="466.848" y2="397.82" gradientUnits="userSpaceOnUse">
<stop stop-color="white"/>
<stop offset="0.0994" stop-color="#EEEEEE" stop-opacity="0.9006"/>
<stop offset="0.2962" stop-color="#C2C3C2" stop-opacity="0.7038"/>
<stop offset="0.5718" stop-color="#7B7D7B" stop-opacity="0.4282"/>
<stop offset="0.9123" stop-color="#1B1E1A" stop-opacity="0.0876"/>
<stop offset="1" stop-color="#010400" stop-opacity="0"/>
</linearGradient>
<linearGradient id="paint5_linear_2_291" x1="638.73" y1="314.225" x2="522.351" y2="507.867" gradientUnits="userSpaceOnUse">
<stop stop-color="white"/>
<stop offset="0.0994" stop-color="#EEEEEE" stop-opacity="0.9006"/>
<stop offset="0.2962" stop-color="#C2C3C2" stop-opacity="0.7038"/>
<stop offset="0.5718" stop-color="#7B7D7B" stop-opacity="0.4282"/>
<stop offset="0.9123" stop-color="#1B1E1A" stop-opacity="0.0876"/>
<stop offset="1" stop-color="#010400" stop-opacity="0"/>
</linearGradient>
<linearGradient id="paint6_linear_2_291" x1="602.538" y1="383.755" x2="564.794" y2="425.37" gradientUnits="userSpaceOnUse">
<stop stop-color="#0DB1C2"/>
<stop offset="0.2803" stop-color="#0AA3B1"/>
<stop offset="0.8322" stop-color="#037D86"/>
<stop offset="0.9996" stop-color="#007177"/>
</linearGradient>
<linearGradient id="paint7_linear_2_291" x1="506.225" y1="335.531" x2="473.813" y2="389.459" gradientUnits="userSpaceOnUse">
<stop stop-color="white"/>
<stop offset="0.0994" stop-color="#EEEEEE" stop-opacity="0.9006"/>
<stop offset="0.2962" stop-color="#C2C3C2" stop-opacity="0.7038"/>
<stop offset="0.5718" stop-color="#7B7D7B" stop-opacity="0.4282"/>
<stop offset="0.9123" stop-color="#1B1E1A" stop-opacity="0.0876"/>
<stop offset="1" stop-color="#010400" stop-opacity="0"/>
</linearGradient>
<linearGradient id="paint8_linear_2_291" x1="611.135" y1="194.17" x2="449.573" y2="462.981" gradientUnits="userSpaceOnUse">
<stop stop-color="white"/>
<stop offset="0.0994" stop-color="#EEEEEE" stop-opacity="0.9006"/>
<stop offset="0.2962" stop-color="#C2C3C2" stop-opacity="0.7038"/>
<stop offset="0.5718" stop-color="#7B7D7B" stop-opacity="0.4282"/>
<stop offset="0.9123" stop-color="#1B1E1A" stop-opacity="0.0876"/>
<stop offset="1" stop-color="#010400" stop-opacity="0"/>
</linearGradient>
<linearGradient id="paint9_linear_2_291" x1="535.378" y1="320.226" x2="462.118" y2="442.118" gradientUnits="userSpaceOnUse">
<stop offset="0.4337" stop-color="#0084E9"/>
<stop offset="0.5779" stop-color="#0973E4"/>
<stop offset="0.8616" stop-color="#2048D8"/>
<stop offset="0.9996" stop-color="#2C30D1"/>
</linearGradient>
<linearGradient id="paint10_linear_2_291" x1="187.574" y1="557.033" x2="187.574" y2="416.309" gradientUnits="userSpaceOnUse">
<stop offset="0.0715" stop-color="#55D1FF"/>
<stop offset="0.1638" stop-color="#4FC3EE" stop-opacity="0.9006"/>
<stop offset="0.3466" stop-color="#41A0C2" stop-opacity="0.7038"/>
<stop offset="0.6024" stop-color="#29677B" stop-opacity="0.4282"/>
<stop offset="0.9186" stop-color="#0A191A" stop-opacity="0.0876"/>
<stop offset="1" stop-color="#010400" stop-opacity="0"/>
</linearGradient>
<linearGradient id="paint11_linear_2_291" x1="456.641" y1="543.396" x2="283.402" y2="480.628" gradientUnits="userSpaceOnUse">
<stop stop-color="#6B5BDF"/>
<stop offset="0.0617" stop-color="#6854DB"/>
<stop offset="0.4794" stop-color="#5529C6"/>
<stop offset="0.806" stop-color="#490FB8"/>
<stop offset="0.9993" stop-color="#4505B3"/>
</linearGradient>
<linearGradient id="paint12_linear_2_291" x1="577.041" y1="561.652" x2="482.492" y2="397.894" gradientUnits="userSpaceOnUse">
<stop stop-color="#55D5C6"/>
<stop offset="0.2244" stop-color="#479EB2" stop-opacity="0.7754"/>
<stop offset="0.4906" stop-color="#37639C" stop-opacity="0.509"/>
<stop offset="0.7181" stop-color="#2C378C" stop-opacity="0.2814"/>
<stop offset="0.8948" stop-color="#261D83" stop-opacity="0.1046"/>
<stop offset="0.9993" stop-color="#23137F" stop-opacity="0"/>
</linearGradient>
<linearGradient id="paint13_linear_2_291" x1="412.494" y1="477.812" x2="387.508" y2="525.974" gradientUnits="userSpaceOnUse">
<stop stop-color="#705FDF"/>
<stop offset="0.187" stop-color="#6E5ADC"/>
<stop offset="0.4142" stop-color="#664BD5"/>
<stop offset="0.6622" stop-color="#5B32C9"/>
<stop offset="0.9234" stop-color="#4A10B9"/>
<stop offset="0.9993" stop-color="#4505B3"/>
</linearGradient>
<linearGradient id="paint14_linear_2_291" x1="497.487" y1="418.796" x2="486.56" y2="472.351" gradientUnits="userSpaceOnUse">
<stop stop-color="#705FDF"/>
<stop offset="0.239" stop-color="#6E5CDD"/>
<stop offset="0.4419" stop-color="#6951D8"/>
<stop offset="0.6316" stop-color="#6140D0"/>
<stop offset="0.8133" stop-color="#5527C4"/>
<stop offset="0.9878" stop-color="#4607B4"/>
<stop offset="0.9993" stop-color="#4505B3"/>
</linearGradient>
<linearGradient id="paint15_linear_2_291" x1="442.418" y1="244.078" x2="343.966" y2="362.22" gradientUnits="userSpaceOnUse">
<stop offset="0.0488" stop-color="#E185BB"/>
<stop offset="0.9989" stop-color="#AC36A8"/>
</linearGradient>
<linearGradient id="paint16_linear_2_291" x1="344.703" y1="432.025" x2="344.703" y2="190.229" gradientUnits="userSpaceOnUse">
<stop offset="0.0715" stop-color="#55D1FF"/>
<stop offset="0.1638" stop-color="#4FC3EE" stop-opacity="0.9006"/>
<stop offset="0.3466" stop-color="#41A0C2" stop-opacity="0.7038"/>
<stop offset="0.6024" stop-color="#29677B" stop-opacity="0.4282"/>
<stop offset="0.9186" stop-color="#0A191A" stop-opacity="0.0876"/>
<stop offset="1" stop-color="#010400" stop-opacity="0"/>
</linearGradient>
<linearGradient id="paint17_linear_2_291" x1="406.47" y1="235.059" x2="328.694" y2="316.774" gradientUnits="userSpaceOnUse">
<stop offset="0.31" stop-color="#AC36A8"/>
<stop offset="0.4773" stop-color="#9B36A8"/>
<stop offset="0.8064" stop-color="#7037A8"/>
<stop offset="0.9996" stop-color="#5337A8"/>
</linearGradient>
<linearGradient id="paint18_linear_2_291" x1="358.069" y1="334.819" x2="288.623" y2="407.827" gradientUnits="userSpaceOnUse">
<stop stop-color="#0DB1C2"/>
<stop offset="0.2803" stop-color="#0AA3B1"/>
<stop offset="0.8322" stop-color="#037D86"/>
<stop offset="0.9996" stop-color="#007177"/>
</linearGradient>
<linearGradient id="paint19_linear_2_291" x1="276.933" y1="459.794" x2="276.933" y2="288.468" gradientUnits="userSpaceOnUse">
<stop offset="0.0715" stop-color="#55D1FF"/>
<stop offset="0.1638" stop-color="#4FC3EE" stop-opacity="0.9006"/>
<stop offset="0.3466" stop-color="#41A0C2" stop-opacity="0.7038"/>
<stop offset="0.6024" stop-color="#29677B" stop-opacity="0.4282"/>
<stop offset="0.9186" stop-color="#0A191A" stop-opacity="0.0876"/>
<stop offset="1" stop-color="#010400" stop-opacity="0"/>
</linearGradient>
<linearGradient id="paint20_linear_2_291" x1="340.512" y1="319.975" x2="262.162" y2="376.957" gradientUnits="userSpaceOnUse">
<stop offset="0.4223" stop-color="#0DB1C2"/>
<stop offset="0.5843" stop-color="#0AA3B1"/>
<stop offset="0.9032" stop-color="#037D86"/>
<stop offset="1" stop-color="#007177"/>
</linearGradient>
<linearGradient id="paint21_linear_2_291" x1="296.173" y1="382.056" x2="238.118" y2="453.172" gradientUnits="userSpaceOnUse">
<stop stop-color="#7DE7E8"/>
<stop offset="0.9896" stop-color="#0084E9"/>
</linearGradient>
<linearGradient id="paint22_linear_2_291" x1="210.659" y1="489.945" x2="210.659" y2="369.492" gradientUnits="userSpaceOnUse">
<stop stop-color="#FFE0AD"/>
<stop offset="0.4333" stop-color="#FFC291"/>
<stop offset="0.6309" stop-color="#FFB188"/>
<stop offset="0.9996" stop-color="#FF8871"/>
</linearGradient>
<linearGradient id="paint23_linear_2_291" x1="271.767" y1="382.322" x2="177.429" y2="446.908" gradientUnits="userSpaceOnUse">
<stop offset="0.4337" stop-color="#0084E9"/>
<stop offset="0.5779" stop-color="#0973E4"/>
<stop offset="0.8616" stop-color="#2048D8"/>
<stop offset="0.9996" stop-color="#2C30D1"/>
</linearGradient>
<linearGradient id="paint24_linear_2_291" x1="275.253" y1="219.467" x2="217.72" y2="372.888" gradientUnits="userSpaceOnUse">
<stop stop-color="#A29AFB"/>
<stop offset="0.9996" stop-color="#4505B3"/>
</linearGradient>
<linearGradient id="paint25_linear_2_291" x1="419.873" y1="23.5588" x2="373.847" y2="151.409" gradientUnits="userSpaceOnUse">
<stop stop-color="#A29AFB"/>
<stop offset="0.9996" stop-color="#4505B3"/>
</linearGradient>
<linearGradient id="paint26_linear_2_291" x1="345.052" y1="101.711" x2="284.962" y2="270.473" gradientUnits="userSpaceOnUse">
<stop stop-color="#A29AFB"/>
<stop offset="0.9996" stop-color="#4505B3"/>
</linearGradient>
<linearGradient id="paint27_linear_2_291" x1="304.736" y1="313.973" x2="272.211" y2="272.005" gradientUnits="userSpaceOnUse">
<stop stop-color="#A29AFB"/>
<stop offset="0.9996" stop-color="#4505B3"/>
</linearGradient>
<linearGradient id="paint28_linear_2_291" x1="375.234" y1="206.776" x2="361.931" y2="160.216" gradientUnits="userSpaceOnUse">
<stop stop-color="#A29AFB"/>
<stop offset="0.9996" stop-color="#4505B3"/>
</linearGradient>
<linearGradient id="paint29_linear_2_291" x1="334.719" y1="230.073" x2="378.063" y2="201.733" gradientUnits="userSpaceOnUse">
<stop stop-color="#AC36A8" stop-opacity="0"/>
<stop offset="0.2425" stop-color="#9B36A8" stop-opacity="0.2425"/>
<stop offset="0.7195" stop-color="#7037A8" stop-opacity="0.7197"/>
<stop offset="0.9996" stop-color="#5337A8"/>
</linearGradient>
<linearGradient id="paint30_linear_2_291" x1="276.788" y1="324.887" x2="302.255" y2="308.236" gradientUnits="userSpaceOnUse">
<stop stop-color="#AC36A8" stop-opacity="0"/>
<stop offset="0.2425" stop-color="#9B36A8" stop-opacity="0.2425"/>
<stop offset="0.7195" stop-color="#7037A8" stop-opacity="0.7197"/>
<stop offset="0.9996" stop-color="#5337A8"/>
</linearGradient>
<linearGradient id="paint31_linear_2_291" x1="192.571" y1="392.804" x2="220.224" y2="374.724" gradientUnits="userSpaceOnUse">
<stop stop-color="#AC36A8" stop-opacity="0"/>
<stop offset="0.2425" stop-color="#9B36A8" stop-opacity="0.2425"/>
<stop offset="0.7195" stop-color="#7037A8" stop-opacity="0.7197"/>
<stop offset="0.9996" stop-color="#5337A8"/>
</linearGradient>
<linearGradient id="paint32_linear_2_291" x1="150.756" y1="482.416" x2="125.664" y2="575.78" gradientUnits="userSpaceOnUse">
<stop stop-color="#A29AFB"/>
<stop offset="0.9996" stop-color="#4505B3"/>
</linearGradient>
<linearGradient id="paint33_linear_2_291" x1="410.793" y1="591.598" x2="186.305" y2="587.76" gradientUnits="userSpaceOnUse">
<stop stop-color="#B6B9FE"/>
<stop offset="0.9996" stop-color="#5861D6"/>
</linearGradient>
<linearGradient id="paint34_linear_2_291" x1="407.904" y1="571.393" x2="152.159" y2="611.423" gradientUnits="userSpaceOnUse">
<stop stop-color="#E8E9FF"/>
<stop offset="0.9996" stop-color="#C0C0F6"/>
</linearGradient>
<linearGradient id="paint35_linear_2_291" x1="344.493" y1="302.232" x2="323.592" y2="275.376" gradientUnits="userSpaceOnUse">
<stop offset="0.0708" stop-color="#AC5E74"/>
<stop offset="0.5672" stop-color="#9B5167"/>
<stop offset="0.9993" stop-color="#894258"/>
</linearGradient>
<linearGradient id="paint36_linear_2_291" x1="335.541" y1="280.733" x2="317.457" y2="271.691" gradientUnits="userSpaceOnUse">
<stop offset="0.0708" stop-color="#73EBFF"/>
<stop offset="0.2056" stop-color="#6EDAF4"/>
<stop offset="0.4723" stop-color="#60AED7"/>
<stop offset="0.8421" stop-color="#4968A8"/>
<stop offset="0.9993" stop-color="#3F4893"/>
</linearGradient>
<linearGradient id="paint37_linear_2_291" x1="324.342" y1="290.073" x2="293.966" y2="290.073" gradientUnits="userSpaceOnUse">
<stop offset="0.0708" stop-color="white"/>
<stop offset="0.3469" stop-color="#EEF0F1"/>
<stop offset="0.8905" stop-color="#C3C9CE"/>
<stop offset="0.9993" stop-color="#B9C0C6"/>
</linearGradient>
<linearGradient id="paint38_linear_2_291" x1="317.734" y1="258.194" x2="293.726" y2="250.049" gradientUnits="userSpaceOnUse">
<stop offset="0.0708" stop-color="#AC5E74"/>
<stop offset="0.5672" stop-color="#9B5167"/>
<stop offset="0.9993" stop-color="#894258"/>
</linearGradient>
<linearGradient id="paint39_linear_2_291" x1="288.021" y1="321.491" x2="333.71" y2="305.424" gradientUnits="userSpaceOnUse">
<stop stop-color="white"/>
<stop offset="0.5824" stop-color="#DAE4FC"/>
<stop offset="0.9993" stop-color="#BDCEFA"/>
</linearGradient>
<linearGradient id="paint40_linear_2_291" x1="319.622" y1="311.617" x2="298.654" y2="282.185" gradientUnits="userSpaceOnUse">
<stop offset="0.0708" stop-color="#AC5E74"/>
<stop offset="0.5672" stop-color="#9B5167"/>
<stop offset="0.9993" stop-color="#894258"/>
</linearGradient>
<linearGradient id="paint41_linear_2_291" x1="308.616" y1="290.79" x2="290.138" y2="278.21" gradientUnits="userSpaceOnUse">
<stop offset="0.0708" stop-color="#73EBFF"/>
<stop offset="0.2056" stop-color="#6EDAF4"/>
<stop offset="0.4723" stop-color="#60AED7"/>
<stop offset="0.8421" stop-color="#4968A8"/>
<stop offset="0.9993" stop-color="#3F4893"/>
</linearGradient>
<linearGradient id="paint42_linear_2_291" x1="435.464" y1="513.052" x2="496.793" y2="474.263" gradientUnits="userSpaceOnUse">
<stop stop-color="#AC36A8" stop-opacity="0"/>
<stop offset="0.2425" stop-color="#9B36A8" stop-opacity="0.2425"/>
<stop offset="0.7195" stop-color="#7037A8" stop-opacity="0.7197"/>
<stop offset="0.9996" stop-color="#5337A8"/>
</linearGradient>
<linearGradient id="paint43_linear_2_291" x1="515.034" y1="370.139" x2="544.789" y2="347.823" gradientUnits="userSpaceOnUse">
<stop stop-color="#AC36A8" stop-opacity="0"/>
<stop offset="0.2425" stop-color="#9B36A8" stop-opacity="0.2425"/>
<stop offset="0.7195" stop-color="#7037A8" stop-opacity="0.7197"/>
<stop offset="0.9996" stop-color="#5337A8"/>
</linearGradient>
<linearGradient id="paint44_linear_2_291" x1="530.918" y1="236.928" x2="536.401" y2="268.739" gradientUnits="userSpaceOnUse">
<stop offset="0.0708" stop-color="#FCC4B7"/>
<stop offset="0.3148" stop-color="#F7B8A6"/>
<stop offset="0.7948" stop-color="#E99A7B"/>
<stop offset="0.9993" stop-color="#E28C66"/>
</linearGradient>
<linearGradient id="paint45_linear_2_291" x1="551.301" y1="354.429" x2="551.301" y2="309.546" gradientUnits="userSpaceOnUse">
<stop offset="0.0711" stop-color="#3A55CA"/>
<stop offset="0.2683" stop-color="#354CB9"/>
<stop offset="0.6562" stop-color="#28368E"/>
<stop offset="0.9993" stop-color="#1B2062"/>
</linearGradient>
<linearGradient id="paint46_linear_2_291" x1="539.535" y1="348.205" x2="539.535" y2="302.751" gradientUnits="userSpaceOnUse">
<stop offset="0.0711" stop-color="#3A55CA"/>
<stop offset="0.2683" stop-color="#354CB9"/>
<stop offset="0.6562" stop-color="#28368E"/>
<stop offset="0.9993" stop-color="#1B2062"/>
</linearGradient>
<linearGradient id="paint47_linear_2_291" x1="539.27" y1="271.078" x2="555.638" y2="250.617" gradientUnits="userSpaceOnUse">
<stop offset="0.0708" stop-color="#FCC4B7"/>
<stop offset="0.3148" stop-color="#F7B8A6"/>
<stop offset="0.7948" stop-color="#E99A7B"/>
<stop offset="0.9993" stop-color="#E28C66"/>
</linearGradient>
<linearGradient id="paint48_linear_2_291" x1="556.678" y1="248.886" x2="557.11" y2="280.924" gradientUnits="userSpaceOnUse">
<stop offset="0.0708" stop-color="#FCC4B7"/>
<stop offset="0.3148" stop-color="#F7B8A6"/>
<stop offset="0.7948" stop-color="#E99A7B"/>
<stop offset="0.9993" stop-color="#E28C66"/>
</linearGradient>
<linearGradient id="paint49_linear_2_291" x1="467.024" y1="493.589" x2="467.024" y2="458.012" gradientUnits="userSpaceOnUse">
<stop offset="0.0708" stop-color="#FCC4B7"/>
<stop offset="0.3148" stop-color="#F7B8A6"/>
<stop offset="0.7948" stop-color="#E99A7B"/>
<stop offset="0.9993" stop-color="#E28C66"/>
</linearGradient>
<linearGradient id="paint50_linear_2_291" x1="498.426" y1="442.618" x2="478.095" y2="405.085" gradientUnits="userSpaceOnUse">
<stop offset="0.0708" stop-color="#FCC4B7"/>
<stop offset="0.3148" stop-color="#F7B8A6"/>
<stop offset="0.7948" stop-color="#E99A7B"/>
<stop offset="0.9993" stop-color="#E28C66"/>
</linearGradient>
<linearGradient id="paint51_linear_2_291" x1="442.455" y1="448.63" x2="458.719" y2="411.722" gradientUnits="userSpaceOnUse">
<stop offset="0.0708" stop-color="#FCC4B7"/>
<stop offset="0.3148" stop-color="#F7B8A6"/>
<stop offset="0.7948" stop-color="#E99A7B"/>
<stop offset="0.9993" stop-color="#E28C66"/>
</linearGradient>
<linearGradient id="paint52_linear_2_291" x1="485.26" y1="394.399" x2="456.485" y2="392.523" gradientUnits="userSpaceOnUse">
<stop offset="0.0708" stop-color="#FCC4B7"/>
<stop offset="0.3148" stop-color="#F7B8A6"/>
<stop offset="0.7948" stop-color="#E99A7B"/>
<stop offset="0.9993" stop-color="#E28C66"/>
</linearGradient>
</defs>
</svg>
